<svg xmlns="http://www.w3.org/2000/svg" width="35" height="35" fill="none"><circle cx="17.5" cy="17.5" r="17.5" fill="url(#a)"/><circle cx="17.5" cy="17.5" r="17.5" fill="url(#b)"/><path fill="#fff" d="M13.38 7.689h8.241a5.694 5.694 0 0 1 5.69 5.69v8.241a5.69 5.69 0 0 1-5.69 5.69H13.38a5.694 5.694 0 0 1-5.69-5.69v-8.24a5.69 5.69 0 0 1 5.69-5.69zm-.196 1.962a3.53 3.53 0 0 0-3.532 3.532v8.633a3.53 3.53 0 0 0 3.532 3.532h8.633a3.53 3.53 0 0 0 3.532-3.532v-8.633a3.53 3.53 0 0 0-3.532-3.532h-8.633zm9.467 1.472a1.226 1.226 0 1 1 0 2.452 1.226 1.226 0 0 1 0-2.452zM17.5 12.595a4.902 4.902 0 0 1 4.905 4.906 4.906 4.906 0 1 1-4.905-4.906zm0 1.962a2.942 2.942 0 1 0 0 5.884 2.942 2.942 0 0 0 0-5.884z"/><defs><radialGradient id="a" cx="0" cy="0" r="1" gradientTransform="rotate(-115.776 27.253 10.582) scale(47.7289 70.9914)" gradientUnits="userSpaceOnUse"><stop offset=".244" stop-color="#ff1b90"/><stop offset=".437" stop-color="#f80261"/><stop offset=".688" stop-color="#ed00c0"/><stop offset=".777" stop-color="#c500e9"/><stop offset=".893" stop-color="#7017ff"/></radialGradient><radialGradient id="b" cx="0" cy="0" r="1" gradientTransform="rotate(-57.44 37.18 5.319) scale(20.6805 21.5107)" gradientUnits="userSpaceOnUse"><stop stop-color="#ffd600"/><stop offset=".484" stop-color="#ff6930"/><stop offset=".734" stop-color="#fe3b36"/><stop offset="1" stop-color="#fe3b36" stop-opacity="0"/></radialGradient></defs></svg>