<svg xmlns="http://www.w3.org/2000/svg" width="25" height="25" fill="none"><path fill="#fff" d="M9.729 5.903h5.542a3.83 3.83 0 0 1 3.826 3.826v5.542a3.826 3.826 0 0 1-3.827 3.827H9.729a3.83 3.83 0 0 1-3.826-3.826V9.729A3.826 3.826 0 0 1 9.73 5.902zm-.132 1.319a2.377 2.377 0 0 0-2.375 2.375v5.806a2.373 2.373 0 0 0 2.375 2.375h5.806a2.379 2.379 0 0 0 2.375-2.375V9.597a2.373 2.373 0 0 0-2.375-2.375H9.597zm6.366.99a.823.823 0 0 1 .583 1.408.822.822 0 0 1-1.166 0 .823.823 0 0 1 .583-1.408zm-3.463.99a3.3 3.3 0 0 1 3.299 3.299A3.3 3.3 0 0 1 12.5 15.8a3.3 3.3 0 0 1-3.299-3.3A3.3 3.3 0 0 1 12.5 9.201zm0 1.319a1.98 1.98 0 0 0-1.979 1.979 1.98 1.98 0 0 0 1.979 1.979 1.98 1.98 0 0 0 1.979-1.979 1.98 1.98 0 0 0-1.979-1.979z"/></svg>