<svg xmlns="http://www.w3.org/2000/svg" width="40" height="28" fill="none" viewBox="0 0 34 24"><rect width="40" height="28" fill="#feb4c7" rx="3"/><path fill="#17120f" fill-rule="evenodd" d="M5.269 15.38H3.886V9h1.383v6.38zM8.723 9H7.37c0 1.174-.51 2.252-1.399 2.957l-.536.425 2.078 2.998H9.22l-1.912-2.759c.906-.955 1.415-2.24 1.415-3.621zm2.207 6.378H9.623V9.001h1.307v6.377zm3.948-4.411v.282a2.102 2.102 0 0 0-1.237-.404c-1.215 0-2.199 1.042-2.199 2.327s.985 2.328 2.199 2.328c.459 0 .884-.15 1.237-.404v.282h1.248v-4.411h-1.248zm-.004 2.206c0 .627-.506 1.135-1.131 1.135s-1.131-.508-1.131-1.135.506-1.135 1.131-1.135 1.131.508 1.131 1.135zm13.169-1.923v-.282h1.248v4.411h-1.248v-.282a2.106 2.106 0 0 1-1.237.404c-1.215 0-2.199-1.042-2.199-2.328s.985-2.327 2.199-2.327a2.1 2.1 0 0 1 1.237.404zm-1.135 3.058c.625 0 1.131-.508 1.131-1.135s-.506-1.135-1.131-1.135-1.131.508-1.131 1.135.506 1.135 1.131 1.135zm2.924.335c0-.458.351-.829.783-.829s.783.371.783.829-.351.829-.783.829-.783-.371-.783-.829zm-7.443-3.794c-.498 0-.97.164-1.286.616v-.497H19.86v4.411h1.258V13.06c0-.671.425-.999.937-.999.548 0 .864.347.864.99v2.327h1.246v-2.805c0-1.027-.771-1.725-1.776-1.725zm-4.333.119v.574c.25-.345.716-.574 1.223-.574v1.284h-.015c-.494 0-1.205.373-1.205 1.068v2.059h-1.28v-4.411h1.278z"/></svg>