<svg xmlns="http://www.w3.org/2000/svg" width="40" height="28" fill="none" viewBox="0 0 34 24"><rect width="40" height="28" x=".5" y=".5" fill="#fff" rx="2.5"/><g fill-rule="evenodd"><path fill="#ed0006" d="M17.179 16.83a6.803 6.803 0 0 1-4.398 1.601c-3.745 0-6.781-3-6.781-6.7s3.036-6.7 6.781-6.7a6.8 6.8 0 0 1 4.398 1.601 6.8 6.8 0 0 1 4.398-1.601c3.745 0 6.781 3 6.781 6.7s-3.036 6.7-6.781 6.7a6.8 6.8 0 0 1-4.398-1.601z"/><path fill="#f9a000" d="M17.179 16.83c1.458-1.229 2.382-3.057 2.382-5.099s-.924-3.871-2.382-5.099a6.8 6.8 0 0 1 4.398-1.601c3.745 0 6.781 3 6.781 6.7s-3.036 6.7-6.781 6.7a6.8 6.8 0 0 1-4.398-1.601z"/><path fill="#ff5e00" d="M17.179 16.83c1.458-1.229 2.382-3.057 2.382-5.099s-.924-3.871-2.382-5.099c-1.458 1.229-2.382 3.057-2.382 5.099s.925 3.871 2.382 5.099z"/></g><rect width="40" height="28" x=".5" y=".5" stroke="#f2f4f7" rx="2.5"/></svg>