<svg xmlns="http://www.w3.org/2000/svg" width="20" height="20"><path d="M8.275 10.825c.083 0 2.017.083 3.167-.2h.008c1.325-.325 3.167-1.258 3.642-4.308 0 0 1.058-3.817-4.192-3.817H6.392a.84.84 0 0 0-.825.7L3.65 15.333a.42.42 0 0 0 .408.483h2.858l.7-4.433a.664.664 0 0 1 .658-.558zm7.55-3.917c-.675 3.108-2.8 4.75-6.183 4.75H8.417l-.858 5.433a.353.353 0 0 0 .35.408h1.583a.582.582 0 0 0 .575-.492l.508-3.183a.583.583 0 0 1 .575-.492h.367c2.35 0 4.192-.958 4.733-3.717.217-1.117.1-2.033-.425-2.708z"/></svg>