<svg xmlns="http://www.w3.org/2000/svg" width="40" height="28" fill="none" viewBox="0 0 34 24"><rect width="40" height="28" x=".5" y=".5" fill="#fff" rx="2.5"/><g fill-rule="evenodd"><path fill="#28356a" d="m14.614 18.448.221-1.449-.492-.012h-2.348l1.632-10.694c.005-.032.021-.062.045-.084s.055-.033.087-.033h3.959c1.314 0 2.221.283 2.695.841.222.262.364.535.432.836.072.316.073.693.003 1.154l-.005.033v.295l.222.13c.187.103.335.22.45.354.19.224.313.508.365.845.054.347.036.76-.052 1.227-.101.538-.265 1.006-.486 1.389a2.82 2.82 0 0 1-.77.873 3.08 3.08 0 0 1-1.037.484 5.02 5.02 0 0 1-1.297.155h-.308a.916.916 0 0 0-.602.229.97.97 0 0 0-.314.579l-.023.13-.39 2.554-.018.094c-.005.03-.013.044-.024.055s-.026.015-.04.015h-1.902z"/><path fill="#298fc2" d="m21.276 9.075-.04.24c-.522 2.771-2.308 3.728-4.59 3.728h-1.162a.57.57 0 0 0-.558.494l-.763 5.003a.304.304 0 0 0 .293.355h2.06a.5.5 0 0 0 .489-.432l.02-.108.388-2.544.025-.139a.5.5 0 0 1 .49-.433h.308c1.996 0 3.558-.838 4.015-3.261.191-1.012.092-1.858-.413-2.453a1.98 1.98 0 0 0-.564-.449z"/><path fill="#22284f" d="m20.729 8.85-.246-.065-.261-.051a6.25 6.25 0 0 0-1.024-.077h-3.103a.48.48 0 0 0-.214.05.51.51 0 0 0-.275.383l-.66 4.322-.019.126a.57.57 0 0 1 .558-.494h1.162c2.281 0 4.068-.958 4.59-3.728l.04-.24a2.73 2.73 0 0 0-.429-.187l-.117-.038z"/><path fill="#28356a" d="M15.605 9.089a.51.51 0 0 1 .275-.382.48.48 0 0 1 .214-.05h3.103a6.25 6.25 0 0 1 1.024.077l.261.051.246.065.117.038a2.78 2.78 0 0 1 .429.187c.155-1.024-.001-1.721-.537-2.352-.591-.695-1.656-.992-3.02-.992H13.76a.57.57 0 0 0-.559.494l-1.649 10.804a.348.348 0 0 0 .335.407h2.444l1.274-8.346z"/></g><rect width="40" height="28" x=".5" y=".5" stroke="#f2f4f7" rx="2.5"/></svg>