<svg xmlns="http://www.w3.org/2000/svg" width="45" height="45" fill="none"><circle cx="22.5" cy="22.5" r="22.5" fill="#1f4373"/><path fill="#fff" d="M11.25 12.563a1.27 1.27 0 0 1 1.313-1.312h5.063a1.14 1.14 0 0 1 .766.281c.219.188.36.427.421.719l.875 4.313a2.01 2.01 0 0 1-.079.891 1.764 1.764 0 0 1-.421.734l-2.937 2.938c.958 1.583 2.094 3.031 3.406 4.344s2.719 2.406 4.219 3.281l3.063-3c.188-.187.401-.308.641-.36s.505-.058.796-.015l4.375.813a1.1 1.1 0 0 1 .719.406 1.2 1.2 0 0 1 .281.781v5.063a1.27 1.27 0 0 1-1.312 1.313c-2.687 0-5.308-.599-7.86-1.797s-4.813-2.782-6.781-4.75-3.552-4.229-4.75-6.781-1.797-5.172-1.796-7.859z"/></svg>