<svg xmlns="http://www.w3.org/2000/svg" width="25" height="26" fill="none"><path fill="#fff" d="M7.292 23.417a2.004 2.004 0 0 1-1.472-.613 2 2 0 0 1-.611-1.471c0-.573.204-1.064.613-1.472a2 2 0 0 1 1.471-.611c.573 0 1.064.204 1.472.613a2 2 0 0 1 .611 1.471c0 .573-.204 1.064-.613 1.472a2 2 0 0 1-1.471.611zm10.417 0a2.004 2.004 0 0 1-1.472-.613 2 2 0 0 1-.611-1.471c0-.573.204-1.064.613-1.472a2 2 0 0 1 1.471-.611c.573 0 1.064.204 1.472.613a2 2 0 0 1 .611 1.471c0 .573-.204 1.064-.612 1.472a2 2 0 0 1-1.471.611zM6.406 6.75l2.5 5.208h7.292l2.865-5.208H6.406zm.885 11.458c-.781 0-1.372-.343-1.771-1.029s-.417-1.367-.052-2.044l1.406-2.552-3.75-7.917H2.057c-.295 0-.538-.1-.729-.3s-.286-.447-.286-.742.1-.543.3-.743.447-.3.742-.299h1.693c.191 0 .373.052.547.156a.97.97 0 0 1 .391.443l.703 1.484h15.365c.469 0 .79.174.964.521s.165.712-.026 1.094l-3.698 6.667a2.12 2.12 0 0 1-.755.807 2.004 2.004 0 0 1-1.068.286H8.44l-1.146 2.083h11.484c.295 0 .538.1.729.3s.287.447.287.742-.1.543-.3.743-.447.3-.742.299H7.292z"/></svg>