<svg width="20" height="20" viewBox="0 0 20 20" fill="none" xmlns="http://www.w3.org/2000/svg">
<path fill-rule="evenodd" clip-rule="evenodd" d="M10 20C11.3132 20 12.6136 19.7413 13.8268 19.2388C15.0401 18.7363 16.1425 17.9997 17.0711 17.0711C17.9997 16.1425 18.7363 15.0401 19.2388 13.8268C19.7413 12.6136 20 11.3132 20 10C20 8.68678 19.7413 7.38642 19.2388 6.17317C18.7363 4.95991 17.9997 3.85752 17.0711 2.92893C16.1425 2.00035 15.0401 1.26375 13.8268 0.761205C12.6136 0.258658 11.3132 -1.95685e-08 10 0C7.34784 3.95203e-08 4.8043 1.05357 2.92893 2.92893C1.05357 4.8043 0 7.34784 0 10C0 12.6522 1.05357 15.1957 2.92893 17.0711C4.8043 18.9464 7.34784 20 10 20ZM9.74222 14.0444L15.2978 7.37778L13.5911 5.95556L8.81333 11.6878L6.34111 9.21445L4.77 10.7856L8.10333 14.1189L8.96333 14.9789L9.74222 14.0444Z" fill="white"/>
</svg>
