<svg xmlns="http://www.w3.org/2000/svg" width="40" height="28" fill="none" viewBox="0 0 34 24"><rect width="40" height="28" x=".5" y=".5" fill="#fff" rx="2.5"/><path fill="#172b85" fill-rule="evenodd" d="M10.75 15.858H8.69L7.146 9.792c-.073-.279-.229-.526-.458-.642A6.564 6.564 0 0 0 4.8 8.508v-.234h3.318c.458 0 .801.351.859.758l.801 4.376 2.059-5.134h2.002l-3.089 7.583zm4.234 0h-1.945l1.602-7.583h1.945l-1.602 7.583zm4.118-5.482c.057-.408.401-.642.801-.642a3.531 3.531 0 0 1 1.888.35l.343-1.633A4.8 4.8 0 0 0 20.36 8.1c-1.888 0-3.262 1.05-3.262 2.508 0 1.109.973 1.691 1.66 2.042.743.35 1.029.583.972.933 0 .525-.572.758-1.144.758a4.795 4.795 0 0 1-2.003-.467l-.343 1.634c.687.291 1.43.409 2.117.409 2.117.058 3.433-.992 3.433-2.567 0-1.984-2.689-2.1-2.689-2.974zm9.497 5.483-1.545-7.583h-1.659a.863.863 0 0 0-.801.583l-2.86 7h2.003l.4-1.108h2.46l.229 1.108H28.6zm-2.917-5.541.571 2.858h-1.602l1.03-2.858z"/><rect width="40" height="28" x=".5" y=".5" stroke="#f2f4f7" rx="2.5"/></svg>