<svg xmlns="http://www.w3.org/2000/svg" width="25" height="25" fill="none"><path fill="#fff" d="m11.111 14.583 3.604-2.083-3.604-2.083v4.167zm8.028-5.437c.09.326.153.764.195 1.319l.069 1.451.042.583c0 1.521-.111 2.639-.306 3.354-.174.625-.576 1.028-1.201 1.201-.326.09-.924.153-1.84.194l-2.493.069-1.104.042c-2.91 0-4.722-.111-5.437-.306-.625-.174-1.028-.576-1.201-1.201-.09-.326-.153-.764-.194-1.319L5.6 13.082l-.042-.583c0-1.521.111-2.639.306-3.354.174-.625.576-1.028 1.201-1.201.326-.09.924-.153 1.84-.194l2.493-.069 1.104-.042c2.91 0 4.722.111 5.438.306.625.174 1.028.576 1.201 1.201z"/></svg>