<svg xmlns="http://www.w3.org/2000/svg" width="35" height="35" fill="none"><circle cx="17.5" cy="17.5" r="17.5" fill="red"/><path fill="#fff" d="M15.538 20.443 20.63 17.5l-5.092-2.943v5.886zm11.341-7.682c.127.461.216 1.079.275 1.864l.098 2.05.059.824c0 2.148-.157 3.728-.432 4.738-.245.883-.814 1.452-1.697 1.697-.461.128-1.305.216-2.6.275l-3.522.098-1.56.059c-4.111 0-6.671-.157-7.682-.432-.883-.245-1.452-.814-1.697-1.697-.128-.461-.216-1.079-.275-1.864l-.098-2.05-.059-.824c0-2.149.157-3.728.432-4.738.245-.883.814-1.452 1.697-1.697.461-.127 1.305-.216 2.6-.275l3.522-.098 1.56-.059c4.111 0 6.671.157 7.682.432.883.245 1.452.814 1.697 1.697z"/></svg>