<svg xmlns="http://www.w3.org/2000/svg" width="215" height="115" fill="none"><g fill="#fff" clip-path="url(#a)"><path d="M.404 78.707V45.321h7.702c5.636 0 8.453 3.267 8.453 9.8 0 1.969-.306 3.642-.916 5.017s-1.684 2.485-3.217 3.329l5.165 15.239H12.52L8.058 64.452H5.194v14.255H.404zm4.79-28.884v10.409h2.725c.845 0 1.518-.118 2.02-.352a2.72 2.72 0 0 0 1.174-1.008c.251-.437.422-.976.517-1.618s.141-1.383.141-2.227-.047-1.587-.141-2.227-.283-1.195-.563-1.665c-.595-.875-1.722-1.313-3.381-1.313H5.195l-.001.001zm20.101 28.884 7.467-33.386h3.992l7.467 33.386h-4.789l-1.408-7.174h-6.528l-1.408 7.174h-4.792zM37.13 67.031l-2.347-12.097h-.095l-2.347 12.097h4.791-.001zm16.624 11.676V45.321h4.791v33.386h-4.791zm16.295 0V45.321h4.602l7.231 20.115h.095V45.321h4.79v33.386h-4.508l-7.326-20.069h-.093v20.069h-4.791.001zm32.545 0V64.593l-6.575-19.272h5.072l3.85 13.27h.095l3.85-13.27h5.072l-6.575 19.272v14.114h-4.79.001zm20.803 0V45.321h7.092c2.755 0 4.844.75 6.269 2.251s2.136 3.627 2.136 6.377v15.614c0 3.126-.759 5.432-2.277 6.916s-3.702 2.227-6.552 2.227h-6.668zm4.791-28.884v24.383h2.208c1.346 0 2.301-.335 2.864-1.008s.846-1.726.846-3.165V53.949c0-1.313-.266-2.329-.798-3.047s-1.503-1.079-2.912-1.079h-2.208zm19.535 28.884 7.468-33.386h3.991l7.468 33.386h-4.791l-1.408-7.174h-6.529l-1.408 7.174h-4.791zm11.835-11.675-2.347-12.097h-.094l-2.347 12.097h4.789-.001zm18.363 11.675V64.593l-6.575-19.272h5.072l3.85 13.27h.093l3.851-13.27h5.072l-6.575 19.272v14.114h-4.79.002zm36.302-23.774h-4.79v-1.079c0-1.094-.258-2.04-.775-2.837s-1.385-1.195-2.606-1.195c-.657 0-1.19.126-1.596.375a3.13 3.13 0 0 0-.986.938 3.96 3.96 0 0 0-.517 1.383 8.922 8.922 0 0 0-.141 1.618l.07 1.642a3.09 3.09 0 0 0 .352 1.172c.188.344.462.641.821.891s.853.501 1.48.75l3.662 1.454c1.064.407 1.925.883 2.583 1.431s1.174 1.18 1.55 1.899c.344.75.579 1.602.705 2.556s.188 2.04.188 3.258c0 1.407-.142 2.712-.423 3.915s-.736 2.228-1.361 3.071c-.657.876-1.52 1.563-2.584 2.063s-2.364.75-3.898.75c-1.159 0-2.239-.204-3.24-.609s-1.863-.969-2.583-1.688-1.292-1.555-1.714-2.508-.634-1.993-.634-3.119v-1.781h4.79v1.501a3.91 3.91 0 0 0 .774 2.368c.517.704 1.385 1.055 2.607 1.055.813 0 1.448-.118 1.902-.352a2.52 2.52 0 0 0 1.057-1.008c.251-.439.399-.961.446-1.57l.07-2.04-.094-2.156c-.063-.563-.187-1.016-.375-1.359a2.66 2.66 0 0 0-.87-.845c-.36-.218-.837-.453-1.432-.704l-3.428-1.406c-2.067-.845-3.452-1.962-4.156-3.353s-1.058-3.134-1.058-5.228c0-1.25.172-2.438.517-3.564s.861-2.093 1.55-2.907c.657-.812 1.494-1.461 2.512-1.945s2.231-.727 3.639-.727c1.189 0 2.277.219 3.263.656s1.839 1.016 2.56 1.735c1.44 1.5 2.16 3.22 2.16 5.157v2.344l.003-.003zM36.569 102.26h3.454a5.28 5.28 0 0 1 1.086.108c.348.094.702.287 1.06.579.3.22.544.534.731.943.196.396.293.863.293 1.402 0 .727-.248 1.39-.746 1.988-.51.628-1.256.953-2.238.969h-2.198v3.835h-1.442v-9.824zm1.442 4.589h2.142c.538-.01.941-.181 1.212-.515a1.7 1.7 0 0 0 .387-1.083c0-.33-.052-.606-.158-.832a1.24 1.24 0 0 0-.458-.481 1.78 1.78 0 0 0-1.035-.278h-2.09v3.189zm6.628-1.759H46v4.168c0 .473.129.841.385 1.106s.576.399.968.399.713-.133.961-.399.38-.633.38-1.106v-4.168h1.362v6.993h-1.362v-.748h-.026a2.15 2.15 0 0 1-1.756.828c-.562-.009-1.07-.22-1.522-.632-.492-.404-.742-1-.751-1.789v-4.654.002zm7.621 4.857c.555.598 1.271.897 2.15.897.394 0 .714-.078.964-.236s.373-.378.373-.66c0-.252-.074-.427-.222-.526s-.356-.16-.609-.168l-1.205-.108c-.572-.053-1.037-.252-1.394-.593-.366-.333-.554-.797-.564-1.395.008-.719.255-1.258.739-1.617.47-.358 1.068-.539 1.792-.539a5.33 5.33 0 0 1 .843.06 4.11 4.11 0 0 1 .699.189c.418.175.794.411 1.126.706l-.845 1.018a4.215 4.215 0 0 0-.832-.484 2.712 2.712 0 0 0-.995-.169c-.428 0-.727.079-.897.235a.77.77 0 0 0-.269.607c-.01.157.059.294.203.412.132.13.362.213.694.249l1.126.087c.708.054 1.218.274 1.533.662.292.378.439.857.439 1.437-.008.679-.277 1.204-.803 1.572-.524.378-1.193.571-2.007.58-1.106 0-2.103-.417-2.988-1.252l.952-.964h-.001zm6.435-7.687h1.361v3.57h.026c.448-.553 1.037-.828 1.763-.828.562 0 1.075.204 1.541.613s.703 1.02.725 1.82v4.649H62.75v-4.169c0-.49-.126-.864-.38-1.12-.248-.261-.569-.391-.961-.391a1.29 1.29 0 0 0-.968.391c-.258.256-.385.63-.385 1.12v4.169h-1.361v-9.824zm7.463 0h1.362v1.4h-1.362v-1.4zm0 2.829h1.362v6.994h-1.362v-6.994zm3.271 0h1.362v.741h.026c.448-.553 1.037-.828 1.763-.828.562 0 1.075.204 1.541.613s.704 1.02.725 1.82v4.649h-1.362v-4.169c0-.49-.126-.864-.38-1.12-.248-.261-.569-.391-.961-.391a1.29 1.29 0 0 0-.968.391c-.258.256-.385.63-.385 1.12v4.169h-1.362v-6.995zm11.236 6.264a2.27 2.27 0 0 1-1.75.81c-.44-.009-.805-.105-1.097-.29-.304-.175-.538-.364-.699-.567-.178-.228-.307-.51-.385-.843s-.123-.953-.123-1.874.041-1.576.123-1.909a2.09 2.09 0 0 1 .385-.829 2.22 2.22 0 0 1 .699-.59c.292-.166.657-.252 1.097-.262.675 0 1.259.277 1.75.828v-.74h1.362v6.824c-.018 1.052-.311 1.824-.882 2.318-.575.508-1.261.761-2.062.761-.919-.017-1.702-.408-2.35-1.17l1.059-.867c.174.167.374.31.6.427a1.53 1.53 0 0 0 .719.21c.466 0 .841-.133 1.123-.4s.422-.645.431-1.124v-.717l.001.004zm-2.693-2.76.052 1.109c.03.212.103.387.215.527a1.26 1.26 0 0 0 .418.345c.178.126.4.189.666.189s.488-.063.666-.189c.178-.104.314-.219.406-.345.114-.14.189-.315.229-.527.026-.203.04-.572.04-1.109l-.04-1.135a1.057 1.057 0 0 0-.229-.513 1.622 1.622 0 0 0-.406-.373 1.39 1.39 0 0 0-.666-.168 1.422 1.422 0 0 0-.666.168 1.53 1.53 0 0 0-.418.373c-.114.131-.185.302-.215.513s-.052.59-.052 1.135zm9.447-5.632h1.362v2.128h.994v1.078h-.994v4.077c-.01.354.152.528.484.519h.51v1.32h-.712c-.479 0-.871-.152-1.174-.458-.313-.291-.47-.713-.47-1.265v-4.193h-.684v-1.078h.684v-2.128zm3.759-.701h1.362v3.57h.026c.448-.553 1.037-.828 1.763-.828.562 0 1.075.204 1.541.613s.703 1.02.725 1.82v4.649h-1.361v-4.169c0-.49-.126-.864-.38-1.12-.248-.261-.569-.391-.961-.391a1.29 1.29 0 0 0-.968.391c-.258.256-.385.63-.385 1.12v4.169h-1.362v-9.824zm8.446 6.857c0 .561.156.989.47 1.282.292.297.676.445 1.151.445.554 0 1.049-.228 1.485-.681l.987.869c-.693.763-1.507 1.141-2.444 1.131-.357 0-.706-.053-1.044-.161a2.51 2.51 0 0 1-.497-.236 2.37 2.37 0 0 1-.477-.316c-.288-.26-.521-.624-.699-1.091-.196-.449-.293-1.034-.293-1.751s.085-1.266.255-1.725c.17-.467.388-.835.653-1.105a2.44 2.44 0 0 1 .908-.593c.33-.122.658-.182.98-.182.775.01 1.43.273 1.966.789.545.525.822 1.248.83 2.17v1.158h-4.231l.001-.003zm2.868-1.158c-.017-.546-.159-.96-.425-1.239-.261-.267-.597-.4-1.009-.4s-.747.133-1.009.4c-.258.279-.399.693-.426 1.239H102.492zm12.88 1.38c-.21.91-.609 1.61-1.197 2.099-.606.484-1.323.727-2.152.727-.748-.018-1.373-.207-1.875-.566-.51-.346-.881-.746-1.111-1.199l-.189-.424a2.82 2.82 0 0 1-.13-.526c-.066-.396-.098-1.154-.098-2.277l.098-2.29c.07-.386.176-.699.32-.937.231-.453.601-.858 1.111-1.213.501-.358 1.126-.543 1.876-.553.92.01 1.669.289 2.249.841s.944 1.244 1.098 2.064h-1.532a2.186 2.186 0 0 0-.641-1.013c-.324-.265-.716-.402-1.178-.412-.34.01-.632.08-.878.21s-.45.304-.602.506a1.653 1.653 0 0 0-.373.817c-.07.351-.104 1.011-.104 1.979s.034 1.622.104 1.964c.062.343.185.619.373.831.154.203.354.367.602.493.244.148.538.223.878.223.811 0 1.419-.447 1.821-1.343h1.53v-.001zm.799-.76c0-.738.059-1.305.177-1.7a2.48 2.48 0 0 1 .562-.979c.188-.233.449-.44.785-.623.332-.174.755-.266 1.275-.275.536.009.969.101 1.301.276.326.185.58.393.758.627a2.22 2.22 0 0 1 .574.978c.108.396.163.961.163 1.698s-.055 1.297-.163 1.683a2.414 2.414 0 0 1-.575 1.004 2.14 2.14 0 0 1-.321.303 1.505 1.505 0 0 1-.437.29c-.331.193-.764.294-1.3.302-.518-.009-.943-.109-1.274-.302a2.585 2.585 0 0 1-.784-.593c-.253-.283-.44-.617-.562-1.004s-.177-.947-.177-1.683l-.002-.002zm4.232.014c0-.5-.022-.865-.066-1.095a1.31 1.31 0 0 0-.269-.582 1.009 1.009 0 0 0-.445-.373 1.447 1.447 0 0 0-.656-.142 1.47 1.47 0 0 0-.642.142 1.24 1.24 0 0 0-.458.371 1.68 1.68 0 0 0-.255.582c-.052.23-.078.59-.078 1.082s.026.843.078 1.068c.053.23.138.432.255.608.118.135.271.254.458.358.197.099.41.149.642.149a1.38 1.38 0 0 0 .656-.149c.196-.104.345-.223.445-.358a1.41 1.41 0 0 0 .269-.608c.044-.226.066-.577.066-1.055v.002zm2.96-3.504h1.364v.741h.026c.464-.553 1.074-.828 1.83-.828.485.009.877.092 1.173.249.292.175.56.397.804.667.548-.62 1.285-.926 2.206-.916.58 0 1.111.204 1.592.613s.724 1.02.742 1.82v4.649h-1.363v-4.169c0-.49-.13-.864-.391-1.12s-.598-.391-1.009-.391-.75.13-1.016.391-.405.63-.405 1.12v4.169h-1.361v-4.169c0-.49-.13-.864-.391-1.12s-.605-.391-1.016-.391-.749.13-1.009.391c-.274.256-.412.63-.412 1.12v4.169h-1.363v-6.993l-.001-.002zm12.046 1.078h-.688v-1.078h.688v-.922c0-.666.178-1.154.536-1.469.348-.292.786-.438 1.314-.438h.881v1.319h-.779c-.411-.013-.607.181-.589.582v.927h1.368v1.078h-1.368v5.915h-1.362v-5.915l-.001.001zm3.285 2.412c0-.738.059-1.305.177-1.7a2.48 2.48 0 0 1 .562-.979c.188-.233.449-.44.785-.623.331-.174.755-.266 1.275-.275.536.009.969.101 1.301.276.326.185.58.393.758.627a2.21 2.21 0 0 1 .573.978c.109.396.164.961.164 1.698s-.055 1.297-.164 1.683a2.4 2.4 0 0 1-.574 1.004 2.14 2.14 0 0 1-.321.303 1.505 1.505 0 0 1-.437.29c-.331.193-.764.294-1.3.302-.519-.009-.944-.109-1.274-.302a2.585 2.585 0 0 1-.784-.593 2.72 2.72 0 0 1-.563-1.004c-.117-.386-.176-.947-.176-1.683l-.002-.002zm4.232.014c0-.5-.022-.865-.066-1.095a1.31 1.31 0 0 0-.269-.582 1.006 1.006 0 0 0-.446-.373 1.44 1.44 0 0 0-.655-.142c-.232 0-.446.048-.642.142a1.23 1.23 0 0 0-.458.371c-.118.167-.203.36-.255.582-.052.23-.078.59-.078 1.082s.026.843.078 1.068c.052.23.137.432.255.608.118.135.27.254.458.358.196.099.41.149.642.149.248 0 .468-.049.655-.149.197-.104.346-.223.446-.358a1.41 1.41 0 0 0 .269-.608c.044-.226.066-.577.066-1.055v.002zm3.015-3.504h1.361v.741h.029c.449-.553 1.038-.828 1.766-.828.545.009 1.02.187 1.425.537l-.994 1.215c-.288-.234-.587-.352-.897-.352-.348 0-.647.117-.897.351-.279.23-.423.601-.432 1.113v4.217h-1.361v-6.994zm5.46-2.128h1.361v2.128h.995v1.078h-.995v4.077c-.009.354.153.528.484.519h.511v1.32h-.712c-.479 0-.871-.152-1.175-.458-.313-.291-.471-.713-.471-1.265v-4.193h-.684v-1.078h.684v-2.128h.002zm6.612 7.888 4.32-7.27h-4.285v-1.319h6.05v1.12l-4.474 7.302h4.474v1.401h-6.085v-1.234zm7.294-2.27c0-.738.059-1.305.177-1.7a2.48 2.48 0 0 1 .562-.979c.188-.233.449-.44.785-.623.331-.174.755-.266 1.275-.275.536.009.969.101 1.301.276.326.185.58.393.758.627a2.21 2.21 0 0 1 .573.978c.109.396.164.961.164 1.698s-.055 1.297-.164 1.683a2.4 2.4 0 0 1-.574 1.004 2.14 2.14 0 0 1-.321.303 1.505 1.505 0 0 1-.437.29c-.331.193-.764.294-1.3.302-.518-.009-.944-.109-1.274-.302a2.585 2.585 0 0 1-.784-.593c-.253-.283-.44-.617-.562-1.004s-.177-.947-.177-1.683l-.002-.002zm4.232.014c0-.5-.022-.865-.066-1.095a1.31 1.31 0 0 0-.269-.582 1.009 1.009 0 0 0-.445-.373 1.447 1.447 0 0 0-.656-.142c-.232 0-.446.048-.642.142a1.24 1.24 0 0 0-.458.371c-.118.167-.203.36-.255.582-.052.23-.078.59-.078 1.082s.026.843.078 1.068c.052.23.137.432.255.608.118.135.271.254.458.358.196.099.41.149.642.149a1.38 1.38 0 0 0 .656-.149c.196-.104.345-.223.445-.358a1.41 1.41 0 0 0 .269-.608c.044-.226.066-.577.066-1.055v.002zm3.015-3.504h1.362v.741h.026c.448-.553 1.036-.828 1.763-.828.562 0 1.075.204 1.541.613s.704 1.02.725 1.82v4.649h-1.361v-4.169c0-.49-.126-.864-.38-1.12-.248-.261-.569-.391-.961-.391a1.29 1.29 0 0 0-.968.391c-.258.256-.385.63-.385 1.12v4.169h-1.362v-6.995zm8.446 4.028c0 .561.157.989.471 1.282.292.297.676.445 1.15.445.554 0 1.049-.228 1.485-.681l.987.869c-.692.763-1.507 1.141-2.443 1.131a3.42 3.42 0 0 1-1.045-.161 2.496 2.496 0 0 1-.496-.236 2.364 2.364 0 0 1-.477-.316c-.288-.26-.522-.624-.7-1.091-.196-.449-.293-1.034-.293-1.751s.085-1.266.255-1.725c.17-.467.388-.835.653-1.105.27-.274.573-.471.907-.593a2.82 2.82 0 0 1 .981-.182c.774.01 1.43.273 1.966.789.544.525.821 1.248.829 2.17v1.158h-4.231l.001-.003zm2.869-1.158c-.018-.546-.159-.96-.425-1.239-.262-.267-.598-.4-1.009-.4s-.748.133-1.01.4c-.257.279-.4.693-.426 1.239H183.869z"/><g fill-rule="evenodd"><path d="M34.715 40.9c3.422-.446 8.647-1.558 8.981-1.836 22.001-18.06-2.579 9.931 21.584-9.816 10.31-8.424 6.623-4.872 14.722 2.049 2.863 2.452 5.96-4.006 3.015-9.168-.086-.149 6.058-7.49 6.146-7.549-.074-.561 2.387 12.119 2.26 3.338 0-.063 1.774-6.17 2.901-6.243 2.437-.156-1.028-2.334 3.159-4.948 1.008-.627 2.398-3.813 2.643-4.436.041.063 6.405 5.758 7.372 6.929 1.05 1.268 6.631 2.563 6.424 7.015-.011.247 2.055 4.692 1.923 7.058-.111 2.025 5.511 4.438 7.571 9.529 2.639 6.524-.713-6.219 1.986-2.112 2.197 3.349 3.746 2.137 7.431 7.572.407.596 1.423 2.002 2.061 2.618h.533c-.042-.298-.223-.849-.6-1.739-.612-1.444-1.27-6.8-2.07-7.293-1.374-.842-6.668-4.277-6.65-5.384.087-5.312 6.922 3.788 5.116.038-3.461-7.185-1.943-2.518-3.868-3.573.876-1.105.282-1.818.527-2.49 1.323-.439 1.549.197-1.517-2.718-3.261-3.095.984-4.515-.788-8.418-.759-1.665 2.019-1.506 3.895.014.963.783 8.042 3.892 12.681 5.803 3.679 4.291 8.029 7.153 13.052 8.591-3.831-2.144-6.974-4.533-9.428-7.171.175.059.303.093.371.107 5.434.89 4.085 1.884 7.315 3.688 2.075.281 6.396 5.436 12.301 6.929 3.124.793 6.35 6.388 9.718 8.788 6.381 4.54 2.026 2.212 9.003 4.245a27.95 27.95 0 0 1 1.781.582h2.449c-3.776-1.291-6.136-4.522-8.832-5.454-5.309-1.828-8.01-5.779-11.444-9.653-3.625-4.093-8.772-3.65-10.654-5.924-1.293-1.565-8.849-5.579-10.921-6.256-.052-.048-.186-.077-.273-.136-.282-.19-.419-.19-.625-.304-.473-.27-.614.007-1.126-.004-.192 0-.839-.408-.86-.464-.056-.031-.307-.136-.342-.163-.323-.27-1.169-.869-1.568-.91-.283-.027-.785-.367-.992-.433-.552-.181-.716-.593-1.504-.727-.618-.104-1.411-.308-1.95-.634.007-.066-6.556-1.897-6.912-1.991a3.115 3.115 0 0 1-.409-.163c-1.374-1.542-3.603-1.856-5.332-2.826-.797-.444-3.951 1.236-5.064 1.956-.584.381-.897.374-1.28.695-.234.197-1.908.935-2.178.7-.236-.208-.081-.136-.318-.186-.978-.215-.767.342-1.24.408-.843.115-.484.24-.913.387-.709.253-.27.43-1.015.416-.572-.858-2.191-1.098-2.949-2.23-.168-.253-1.585-1.517-2.039-1.526-.572-.007-2.201-1.683-3.114-1.984a90.9 90.9 0 0 1-1.13-.8c-.008-.007-.81-.36-1.024-.554-.288-.263-1.322-.686-2.126-.904-.352-.204-.706-.378-1.04-.457-1.204-.294-1.33-.987-2.198-.606-1.748.758-1.359.437-3.233 1.659-.177-.025-1.154.17-1.251.263-.501.482-.869 1.046-1.427 1.035-1.002-.018-.683.201-1.82.793-.961.509-1.152.879-2.203 1.316-.466.197-1.569 1.232-2.035 1.184-.28.17-.746-.215-1.296.63-.1.152-.718.136-1.294.856-.023.031-.613.319-.775.485-.993 1.014-.458.392-.906.643-.631.36-1.298.754-1.97 1.019-1.333.512-1.277.897-1.918 1.275-.85.502-.905.797-1.994 1.173-.587.208-2.515 1.721-3.151 1.836-.613.104-2.867 2.216-3.753 2.6-.07.034-.282.194-.343.249-1.303.156-1.744 1.046-2.86 1.579-.51.242-.623.557-1.252.731-.894.24-2.188 1.558-2.56 1.683-.753.26-1.973 1.399-2.666 1.333-.011-.004-2.081 1.16-2.139 1.243s-.13.107-.127.183c-.762.596-.269-.45-1.729 1.277-.935 1.105-3.359 1.846-4.902 3.555-.343.381-.489-.537-2.187 1.991-1.508 2.24-2.873 1.954-4.774 3.469-1.423 1.132-2.378.643-4.524 2.355-1.47 1.171-3.091 2.174-4.713 3.037-.631.34-1.142 1.066-1.774 1.275h2.948v.004zm175.541 48.21a3889.95 3889.95 0 0 1-206.141 0 6790.757 6790.757 0 0 1 206.141 0zm-9.316 23.539a28.52 28.52 0 0 1-9.583-9.865 49.36 49.36 0 0 1 9.583 9.865z"/><path d="M190.346 112.649a49.335 49.335 0 0 1 9.583-9.865 28.51 28.51 0 0 1-9.583 9.865zm-158.702 0a28.52 28.52 0 0 1-9.583-9.865 49.34 49.34 0 0 1 9.583 9.865z"/><path d="M21.05 112.649a49.308 49.308 0 0 1 9.583-9.865 28.52 28.52 0 0 1-9.583 9.865z"/></g></g><defs><clipPath id="a"><path fill="#fff" d="M0 0h215v115H0z"/></clipPath></defs></svg>