<svg xmlns="http://www.w3.org/2000/svg" width="130" height="58" fill="#fff"><path d="M.556 49.357V29.263h4.637c3.393 0 5.089 1.966 5.089 5.898 0 1.185-.184 2.192-.551 3.02s-1.014 1.495-1.937 2.004l3.11 9.172H7.85l-2.686-8.579H3.439v8.579H.556zM3.44 31.973v6.265h1.64c.509 0 .914-.071 1.216-.212a1.65 1.65 0 0 0 .707-.606c.151-.263.254-.587.311-.974a9.28 9.28 0 0 0 .085-1.341 9.28 9.28 0 0 0-.085-1.341 2.702 2.702 0 0 0-.339-1.002c-.358-.526-1.037-.79-2.036-.79H3.44l-.001.001zm12.101 17.384 4.496-20.093h2.403l4.496 20.093h-2.884l-.848-4.318h-3.93l-.848 4.318H15.54zm7.125-7.027-1.413-7.281h-.057l-1.413 7.281h2.885-.001zm10.009 7.027V29.263h2.885v20.093h-2.885zm9.812 0V29.263h2.771l4.354 12.107h.057V29.263h2.884v20.093h-2.714l-4.411-12.079h-.056v12.079h-2.885.001zm19.594 0v-8.494l-3.959-11.599h3.054l2.318 7.987h.057l2.318-7.987h3.054l-3.959 11.599v8.494H62.08h.001zm12.525 0V29.263h4.27c1.659 0 2.917.452 3.775 1.355s1.286 2.183 1.286 3.838v9.397c0 1.881-.457 3.27-1.371 4.163s-2.229 1.341-3.944 1.341h-4.015zm2.885-17.384v14.675h1.329c.811 0 1.385-.202 1.725-.606s.509-1.039.509-1.905v-9.68c0-.79-.16-1.402-.48-1.834s-.905-.649-1.754-.649h-1.33zm11.762 17.384 4.496-20.093h2.403l4.496 20.093h-2.885l-.848-4.318h-3.93l-.848 4.318h-2.884zm7.125-7.027-1.413-7.281h-.056l-1.413 7.281h2.884-.001zm11.056 7.027v-8.494l-3.959-11.599h3.054l2.318 7.987h.056l2.318-7.987h3.054l-3.959 11.599v8.494h-2.883.001zm21.855-14.308h-2.883V34.4c0-.658-.156-1.228-.467-1.707s-.834-.719-1.569-.719c-.396 0-.717.076-.961.226a1.9 1.9 0 0 0-.594.564 2.393 2.393 0 0 0-.311.832 5.38 5.38 0 0 0-.085.974l.042.988c.028.264.099.498.212.705s.278.386.495.536.513.302.891.452l2.205.875c.64.245 1.159.532 1.555.861a3.71 3.71 0 0 1 .933 1.143c.207.452.348.964.424 1.538a15.27 15.27 0 0 1 .113 1.961c0 .847-.085 1.632-.254 2.357s-.443 1.341-.82 1.848c-.395.527-.915.941-1.555 1.242s-1.423.452-2.347.452a5.15 5.15 0 0 1-1.951-.367 4.624 4.624 0 0 1-1.555-1.016 4.93 4.93 0 0 1-1.032-1.509 4.588 4.588 0 0 1-.382-1.877v-1.072h2.884v.903a2.35 2.35 0 0 0 .466 1.425c.312.423.834.635 1.57.635.489 0 .872-.071 1.145-.212a1.52 1.52 0 0 0 .636-.606c.151-.263.241-.578.269-.945l.042-1.228-.056-1.298c-.038-.339-.113-.611-.227-.818a1.6 1.6 0 0 0-.523-.508 6.81 6.81 0 0 0-.863-.424l-2.064-.846c-1.244-.508-2.077-1.181-2.502-2.018s-.636-1.886-.636-3.147c0-.752.103-1.468.311-2.145s.518-1.26.933-1.749c.395-.489.9-.879 1.512-1.171s1.343-.437 2.191-.437a4.8 4.8 0 0 1 1.965.395 5.053 5.053 0 0 1 1.541 1.044c.867.903 1.301 1.938 1.301 3.104v1.411l.001-.002z"/><path fill-rule="evenodd" d="M21.213 26.604c2.061-.269 5.206-.938 5.407-1.105 13.246-10.87-1.553 5.977 12.995-5.908 6.207-5.07 3.987-2.933 8.864 1.233 1.724 1.476 3.589-2.411 1.815-5.518-.052-.09 3.647-4.508 3.7-4.543-.045-.338 1.437 7.294 1.361 2.009 0-.038 1.068-3.714 1.747-3.757 1.467-.094-.619-1.405 1.902-2.978.607-.377 1.444-2.295 1.592-2.67.025.038 3.856 3.466 4.438 4.17.632.763 3.992 1.542 3.868 4.222-.007.148 1.237 2.824 1.158 4.248-.067 1.219 3.318 2.671 4.558 5.735 1.589 3.926-.429-3.743 1.196-1.271 1.322 2.015 2.255 1.286 4.474 4.557.245.358.857 1.205 1.241 1.575h.321c-.026-.18-.135-.511-.362-1.046-.368-.869-.764-4.093-1.246-4.389-.827-.507-4.015-2.574-4.004-3.241.052-3.197 4.167 2.28 3.08.023-2.084-4.324-1.17-1.515-2.329-2.151.528-.665.17-1.094.317-1.499.797-.264.933.119-.913-1.636-1.963-1.863.593-2.717-.475-5.067-.457-1.002 1.216-.906 2.345.008.579.471 4.842 2.343 7.635 3.493 2.215 2.582 4.834 4.305 7.858 5.17-2.307-1.29-4.199-2.728-5.677-4.316a2.05 2.05 0 0 0 .224.064c3.272.536 2.459 1.134 4.404 2.22 1.249.169 3.85 3.272 7.406 4.17 1.881.477 3.823 3.845 5.851 5.289 3.842 2.732 1.22 1.331 5.421 2.555.413.121.763.237 1.072.35h1.474c-2.273-.777-3.694-2.722-5.317-3.283-3.197-1.1-4.823-3.478-6.89-5.81-2.183-2.464-5.282-2.197-6.414-3.565-.779-.942-5.328-3.358-6.576-3.766-.031-.029-.112-.046-.164-.082-.17-.115-.253-.115-.377-.183-.285-.162-.37.004-.678-.002-.116 0-.505-.246-.518-.279-.034-.019-.185-.082-.206-.098-.194-.162-.703-.523-.944-.548-.171-.016-.473-.221-.598-.26-.332-.109-.431-.357-.906-.438-.371-.063-.85-.185-1.174-.381.004-.04-3.947-1.142-4.162-1.198a1.774 1.774 0 0 1-.246-.098c-.827-.928-2.17-1.117-3.211-1.701-.48-.267-2.378.744-3.049 1.177-.352.229-.54.225-.77.419-.141.119-1.149.563-1.312.421-.142-.125-.049-.082-.192-.112-.589-.129-.462.206-.746.246-.508.069-.291.144-.55.233-.427.152-.163.259-.611.25-.344-.517-1.319-.661-1.776-1.342-.101-.152-.954-.913-1.228-.919-.344-.004-1.325-1.013-1.875-1.194a52.92 52.92 0 0 1-.68-.481c-.005-.004-.488-.217-.617-.334-.173-.158-.796-.413-1.28-.544a2.424 2.424 0 0 0-.627-.275c-.725-.177-.801-.594-1.323-.365-1.053.456-.818.263-1.947.999-.106-.015-.695.102-.753.158-.301.29-.523.63-.859.623-.604-.011-.411.121-1.096.477-.579.307-.694.529-1.327.792-.281.119-.944.742-1.225.713-.168.102-.449-.129-.78.379-.06.091-.433.082-.779.515-.014.019-.369.192-.466.292-.598.611-.276.236-.546.387-.38.217-.782.454-1.186.613-.802.308-.769.54-1.155.767-.512.302-.545.48-1.2.706-.353.125-1.514 1.036-1.897 1.105-.369.063-1.726 1.334-2.26 1.565a1.64 1.64 0 0 0-.206.15c-.784.094-1.05.63-1.722.95-.307.146-.375.335-.754.44-.538.144-1.318.938-1.541 1.013-.453.157-1.188.842-1.605.803-.007-.002-1.253.698-1.288.748s-.078.064-.077.11c-.459.358-.162-.271-1.041.769-.563.665-2.023 1.111-2.951 2.14-.206.229-.295-.323-1.317 1.198-.908 1.348-1.729 1.176-2.875 2.088-.857.681-1.431.387-2.724 1.417-.885.704-1.861 1.309-2.837 1.828-.38.204-.688.642-1.068.767h1.775v.003zm105.688 29.015a2343.06 2343.06 0 0 1-124.112 0 4089.61 4089.61 0 0 1 124.112 0z"/></svg>