<svg xmlns="http://www.w3.org/2000/svg" width="300" height="167" fill="#fff"><path d="M9.48 54.24c-2.304 0-4.112-.648-5.424-1.944C2.76 51 2.112 49.128 2.112 46.68V37.2h3.12v9.36c0 1.728.368 2.984 1.104 3.768.752.784 1.808 1.176 3.168 1.176s2.408-.392 3.144-1.176 1.104-2.04 1.104-3.768V37.2h3.072v9.48c0 2.448-.656 4.32-1.968 5.616-1.296 1.296-3.088 1.944-5.376 1.944zM21.194 54V37.2h6.912c1.488 0 2.76.24 3.816.72 1.072.48 1.896 1.168 2.472 2.064s.864 1.96.864 3.192-.288 2.296-.864 3.192-1.4 1.584-2.472 2.064c-1.056.48-2.328.72-3.816.72h-5.184l1.392-1.464V54h-3.12zm3.12-5.976-1.392-1.512h5.04c1.376 0 2.408-.288 3.096-.864.704-.592 1.056-1.416 1.056-2.472 0-1.072-.352-1.896-1.056-2.472-.688-.576-1.72-.864-3.096-.864h-5.04l1.392-1.536v9.72zM5.664 83V68.84H.096V66.2h14.256v2.64H8.784V83h-3.12zm18.667.24c-1.312 0-2.52-.216-3.624-.648s-2.064-1.032-2.88-1.8a8.323 8.323 0 0 1-1.896-2.736c-.448-1.056-.672-2.208-.672-3.456s.224-2.392.672-3.432a8.004 8.004 0 0 1 1.896-2.736c.816-.784 1.776-1.392 2.88-1.824s2.304-.648 3.6-.648c1.312 0 2.512.216 3.6.648a8.664 8.664 0 0 1 2.88 1.824 8.004 8.004 0 0 1 1.896 2.736c.448 1.04.672 2.184.672 3.432s-.224 2.4-.672 3.456-1.08 1.968-1.896 2.736-1.776 1.368-2.88 1.8c-1.088.432-2.28.648-3.576.648zm-.024-2.736c.848 0 1.632-.144 2.352-.432s1.344-.696 1.872-1.224a5.835 5.835 0 0 0 1.224-1.872c.304-.72.456-1.512.456-2.376s-.152-1.648-.456-2.352a5.507 5.507 0 0 0-1.224-1.872 5.34 5.34 0 0 0-1.872-1.248c-.72-.288-1.504-.432-2.352-.432s-1.632.144-2.352.432a5.65 5.65 0 0 0-1.872 1.248 5.815 5.815 0 0 0-1.248 1.872c-.288.704-.432 1.488-.432 2.352 0 .848.144 1.632.432 2.352.304.72.72 1.352 1.248 1.896.528.528 1.152.936 1.872 1.224s1.504.432 2.352.432zm7.94 32.357V97.928L77.457 37.1h23.29L56.496 97.928l-10.823-3.151h75.487v18.084H32.247zM83.896 133v-20.139l.685-18.084V76.83h20.961V133H83.896zm85.002 1.644c-7.855 0-14.887-1.918-21.098-5.754-6.211-3.927-11.097-9.59-14.659-16.988s-5.343-16.349-5.343-26.852 1.781-19.454 5.343-26.852 8.448-13.015 14.659-16.851c6.211-3.927 13.243-5.891 21.098-5.891 7.946 0 14.979 1.964 21.098 5.891 6.211 3.836 11.097 9.453 14.659 16.851s5.343 16.349 5.343 26.852-1.781 19.454-5.343 26.852-8.448 13.061-14.659 16.988c-6.119 3.836-13.152 5.754-21.098 5.754zm0-18.769c3.745 0 6.987-1.05 9.727-3.151 2.831-2.101 5.023-5.434 6.576-10.001 1.644-4.567 2.466-10.458 2.466-17.673s-.822-13.106-2.466-17.673c-1.553-4.567-3.745-7.9-6.576-10.001-2.74-2.101-5.982-3.151-9.727-3.151-3.653 0-6.896 1.05-9.727 3.151-2.74 2.101-4.932 5.434-6.576 10.001-1.553 4.567-2.329 10.458-2.329 17.673s.776 13.106 2.329 17.673c1.644 4.567 3.836 7.9 6.576 10.001 2.831 2.101 6.074 3.151 9.727 3.151zM227.58 104l46.366-67.9h11.543L239.123 104H227.58zm5.917-31.234c-3.298 0-6.208-.744-8.73-2.231-2.522-1.552-4.527-3.718-6.014-6.499-1.423-2.845-2.134-6.176-2.134-9.991s.711-7.113 2.134-9.894c1.487-2.781 3.492-4.947 6.014-6.499s5.432-2.328 8.73-2.328 6.208.776 8.73 2.328 4.494 3.718 5.917 6.499 2.134 6.079 2.134 9.894-.711 7.146-2.134 9.991c-1.423 2.781-3.395 4.947-5.917 6.499-2.522 1.487-5.432 2.231-8.73 2.231zm0-7.954c2.134 0 3.848-.873 5.141-2.619 1.293-1.811 1.94-4.527 1.94-8.148s-.647-6.305-1.94-8.051c-1.293-1.811-3.007-2.716-5.141-2.716-2.069 0-3.783.905-5.141 2.716-1.293 1.746-1.94 4.43-1.94 8.051 0 3.557.647 6.24 1.94 8.051 1.358 1.811 3.072 2.716 5.141 2.716zm46.075 39.964c-3.233 0-6.143-.744-8.73-2.231-2.522-1.552-4.494-3.718-5.917-6.499-1.423-2.845-2.134-6.176-2.134-9.991s.711-7.113 2.134-9.894 3.395-4.947 5.917-6.499c2.587-1.552 5.497-2.328 8.73-2.328 3.363 0 6.305.776 8.827 2.328s4.494 3.718 5.917 6.499 2.134 6.079 2.134 9.894-.711 7.146-2.134 9.991c-1.423 2.781-3.395 4.947-5.917 6.499-2.522 1.487-5.464 2.231-8.827 2.231zm0-7.954c2.134 0 3.848-.873 5.141-2.619 1.293-1.811 1.94-4.527 1.94-8.148 0-3.557-.647-6.24-1.94-8.051s-3.007-2.716-5.141-2.716c-2.069 0-3.783.905-5.141 2.716-1.293 1.746-1.94 4.43-1.94 8.051s.647 6.337 1.94 8.148c1.358 1.746 3.072 2.619 5.141 2.619zm-44.224 39.518c-1.859 0-3.57-.306-5.134-.918s-2.924-1.462-4.08-2.55a11.803 11.803 0 0 1-2.686-3.876c-.635-1.496-.952-3.128-.952-4.896s.317-3.389.952-4.862a11.344 11.344 0 0 1 2.686-3.876c1.156-1.111 2.516-1.972 4.08-2.584s3.264-.918 5.1-.918c1.859 0 3.559.306 5.1.918 1.564.612 2.924 1.473 4.08 2.584a11.344 11.344 0 0 1 2.686 3.876c.635 1.473.952 3.094.952 4.862s-.317 3.4-.952 4.896-1.53 2.788-2.686 3.876-2.516 1.938-4.08 2.55c-1.541.612-3.23.918-5.066.918zm-.034-3.876c1.201 0 2.312-.204 3.332-.612s1.904-.986 2.652-1.734a8.274 8.274 0 0 0 1.734-2.652c.431-1.02.646-2.142.646-3.366s-.215-2.335-.646-3.332a7.802 7.802 0 0 0-1.734-2.652 7.56 7.56 0 0 0-2.652-1.768c-1.02-.408-2.131-.612-3.332-.612s-2.312.204-3.332.612a8.003 8.003 0 0 0-2.652 1.768 8.244 8.244 0 0 0-1.768 2.652c-.408.997-.612 2.108-.612 3.332 0 1.201.204 2.312.612 3.332a8.656 8.656 0 0 0 1.768 2.686c.748.748 1.632 1.326 2.652 1.734s2.131.612 3.332.612zm21.549-9.316h11.866v3.74h-11.866v-3.74zm.374 12.852h-4.42v-23.8h17.374v3.706h-12.954V136zm21.275-12.852h11.866v3.74h-11.866v-3.74zm.374 12.852h-4.42v-23.8h17.374v3.706h-12.954V136z"/></svg>