<svg xmlns="http://www.w3.org/2000/svg" width="770" height="200" fill="none"><path fill="#fff" fill-opacity=".04" fill-rule="evenodd" d="M46.999 200c.403-.154.677-.287.806-.395 112.141-92.424-13.147 50.822 110.016-50.233 52.551-43.109 33.758-24.935 75.043 10.488 14.593 12.547 30.381-20.5 15.369-46.92-.441-.764 30.878-38.33 31.325-38.631-.377-2.872 12.168 62.017 11.518 17.081 0-.322 9.044-31.576 14.789-31.948 12.42-.799-5.242-11.945 16.103-25.32 5.137-3.209 12.224-19.512 13.475-22.7.21.322 32.647 29.467 37.574 35.458 5.354 6.488 33.8 13.115 32.744 35.899-.056 1.261 10.477 24.01 9.806 36.116-.566 10.362 28.09 22.714 38.587 48.762 13.454 33.384-3.634-31.828 10.128-10.81 11.196 17.137 19.094 10.936 37.874 38.75.73 1.073 1.846 2.66 3.126 4.403h6.996c-3.106-7.529-6.449-34.714-10.507-37.226-7.003-4.309-33.988-21.887-33.897-27.555.44-27.183 35.281 19.386 26.077.197-17.641-36.768-9.904-12.885-19.717-18.286 4.466-5.654 1.44-9.304 2.684-12.744 6.744-2.249 7.898 1.009-7.73-13.907-16.62-15.841 5.018-23.106-4.019-43.08-3.865-8.519 10.295-7.707 19.856.07 4.907 4.007 40.992 19.918 64.636 29.699 18.752 21.957 40.929 36.607 66.53 43.963-19.528-10.971-35.547-23.197-48.057-36.697.894.301 1.544.476 1.894.546 27.698 4.554 20.82 9.64 37.287 18.874 10.574 1.437 32.597 27.821 62.699 35.458 15.922 4.056 32.367 32.69 49.533 44.972 16.434 11.737 18.898 14.504 21.901 15.711H770c-10.364-7.237-18.806-15.722-28.017-18.92-27.062-9.353-40.831-29.573-58.332-49.4-18.479-20.948-44.716-18.678-54.305-30.315-6.591-8.008-45.108-28.549-55.669-32.017-.266-.245-.951-.392-1.391-.694-1.44-.974-2.139-.974-3.187-1.555-2.411-1.38-3.131.035-5.738-.021-.978 0-4.277-2.088-4.382-2.375-.287-.161-1.566-.694-1.748-.834-1.642-1.38-5.954-4.449-7.988-4.659-1.447-.14-4.005-1.878-5.06-2.214-2.81-.925-3.649-3.034-7.667-3.72-3.146-.532-7.192-1.576-9.939-3.244.035-.336-33.415-9.71-35.232-10.187-.329-.07-1.098-.392-2.083-.834-7.003-7.889-18.368-9.5-27.181-14.461-4.061-2.27-20.136 6.327-25.811 10.012-2.977 1.948-4.571 1.913-6.521 3.559-1.195 1.009-9.729 4.785-11.106 3.58-1.202-1.065-.412-.694-1.621-.953-4.983-1.1-3.907 1.752-6.318 2.088-4.299.588-2.467 1.226-4.655 1.983-3.613 1.296-1.377 2.2-5.172 2.13-2.915-4.393-11.169-5.619-15.034-11.413-.852-1.296-8.079-7.763-10.393-7.812-2.914-.035-11.217-8.61-15.872-10.152-.042-.021-5.466-3.846-5.759-4.091-.042-.035-4.131-1.843-5.221-2.838-1.468-1.345-6.738-3.51-10.833-4.624-1.796-1.044-3.6-1.934-5.305-2.34-6.136-1.506-6.779-5.051-11.204-3.104-8.911 3.881-6.926 2.235-16.48 8.491-.902-.126-5.885.869-6.374 1.345-2.551 2.466-4.431 5.353-7.276 5.297-5.109-.091-3.48 1.03-9.274 4.056-4.9 2.606-5.871 4.498-11.232 6.733-2.376 1.009-7.996 6.305-10.372 6.06-1.426.869-3.802-1.1-6.605 3.223-.51.778-3.662.694-6.597 4.379-.119.161-3.125 1.632-3.949 2.48-5.061 5.191-2.335 2.004-4.62 3.293-3.215 1.843-6.619 3.86-10.044 5.212-6.793 2.62-6.507 4.589-9.777 6.523-4.334 2.571-4.613 4.078-10.163 6.004-2.991 1.065-12.818 8.807-16.061 9.395-3.124.532-14.614 11.343-19.129 13.304-.357.175-1.44.995-1.747 1.275-6.64.799-8.891 5.353-14.58 8.078-2.6 1.24-3.173 2.852-6.381 3.741-4.557 1.227-11.155 7.973-13.049 8.611-3.837 1.331-10.057 7.16-13.587 6.824-.055-.021-10.609 5.934-10.903 6.361-.293.407-.664.547-.65.939-3.886 3.048-1.369-2.305-8.813 6.537-4.767 5.654-17.123 9.444-24.986 18.194-1.747 1.948-2.495-2.746-11.148 10.187-7.688 11.462-14.642 9.998-24.336 17.754-7.255 5.794-12.119 3.292-23.057 12.05C13.923 191.828 7.264 196.165.507 200h46.492z"/></svg>