<svg xmlns="http://www.w3.org/2000/svg" width="416" height="126" fill="none"><path fill="#fff" fill-opacity=".5" fill-rule="evenodd" d="m0 109.843 11.305-9.071c35.472-29.082 22.786-16.822 50.654 7.076 9.851 8.465 20.508-13.83 10.374-31.654-.297-.515 20.843-25.859 21.145-26.062-.255-1.938 8.214 41.84 7.775 11.523 0-.218 6.105-21.303 9.983-21.553 8.383-.539-3.538-8.059 10.869-17.082 3.468-2.165 8.252-13.163 9.096-15.314.142.217 22.036 19.88 25.362 23.921 3.614 4.377 22.815 8.848 22.103 24.219-.038.851 7.071 16.198 6.619 24.365-.383 6.991 18.96 15.324 26.046 32.897 9.081 22.522-2.453-21.473 6.836-7.294 6.627 10.139 11.542 8.17 21.2 20.185h8.923c-1.461-6.953-3.038-15.085-4.818-16.186-4.727-2.907-22.942-14.766-22.88-18.589.297-18.339 23.815 13.078 17.601.132-11.907-24.805-6.685-8.692-13.308-12.336 3.014-3.814.972-6.277 1.811-8.598 4.553-1.517 5.331.681-5.217-9.382-11.219-10.687 3.387-15.588-2.713-29.064-2.609-5.747 6.949-5.199 13.403.047 3.312 2.704 27.669 13.438 43.629 20.036 12.657 14.813 27.627 24.696 44.907 29.659-13.181-7.402-23.994-15.65-32.438-24.758.604.203 1.042.321 1.278.369 18.696 3.072 14.054 6.504 25.169 12.733 7.138.969 22.003 18.769 42.322 23.921 10.747 2.737 21.848 22.054 33.435 30.34a57.38 57.38 0 0 0 2.482 1.675c22.659-.009-4.952-.009 22.659-.009-2.742-1.183-6.053-2.462-9.998-3.831-18.267-6.31-27.56-19.951-39.374-33.327-12.473-14.132-30.183-12.601-36.656-20.452-4.449-5.403-30.448-19.261-37.576-21.6-.18-.166-.642-.265-.939-.468-.972-.657-1.444-.657-2.151-1.049-1.628-.931-2.114.024-3.874-.014-.66 0-2.887-1.409-2.958-1.602-.193-.109-1.056-.468-1.179-.562-1.109-.931-4.019-3.001-5.392-3.143-.977-.094-2.703-1.267-3.416-1.494-1.896-.624-2.463-2.047-5.175-2.51-2.123-.359-4.855-1.063-6.709-2.188.024-.227-22.555-6.551-23.781-6.872-.222-.047-.741-.265-1.406-.562-4.727-5.322-12.398-6.409-18.347-9.756-2.741-1.531-13.592 4.268-17.423 6.754-2.009 1.314-3.085 1.29-4.401 2.401-.807.681-6.567 3.228-7.497 2.415-.811-.718-.278-.468-1.094-.643-3.364-.742-2.637 1.182-4.265 1.409-2.901.397-1.665.827-3.142 1.338-2.439.874-.929 1.484-3.491 1.437-1.967-2.963-7.539-3.791-10.148-7.699-.575-.875-5.453-5.237-7.015-5.27-1.967-.024-7.572-5.809-10.714-6.849a304.24 304.24 0 0 1-3.887-2.76c-.028-.024-2.788-1.243-3.524-1.914-.991-.907-4.548-2.368-7.313-3.12-1.212-.704-2.429-1.305-3.58-1.579-4.143-1.016-4.577-3.408-7.563-2.094-6.015 2.619-4.675 1.508-11.124 5.729-.609-.085-3.972.586-4.303.908-1.722 1.664-2.991 3.611-4.911 3.573-3.448-.061-2.349.695-6.26 2.737-3.307 1.758-3.963 3.034-7.581 4.542-1.604.681-5.397 4.254-7.001 4.089-.962.586-2.566-.742-4.458 2.174-.344.525-2.472.468-4.454 2.954-.08.109-2.109 1.101-2.665 1.673-3.416 3.502-1.576 1.352-3.118 2.221-2.17 1.243-4.468 2.604-6.779 3.516-4.586 1.768-4.392 3.096-6.6 4.401-2.925 1.735-3.114 2.751-6.86 4.051-2.019.718-8.652 5.941-10.841 6.338-2.109.359-9.865 7.652-12.912 8.976-.241.118-.972.671-1.179.86-4.482.539-6.001 3.611-9.841 5.45-1.755.837-2.142 1.924-4.307 2.524-1.976.531-4.521 2.6-6.427 4.125C0 102 0 66 0 109.843z"/></svg>