<svg xmlns="http://www.w3.org/2000/svg" width="416" height="118" fill="none"><path fill="#fff" fill-opacity=".5" fill-rule="evenodd" d="M27.747 118c64.888-52.841-8.766 31.047 64.656-28.847 31.548-25.729 20.266-14.882 45.05 6.26 8.761 7.489 18.239-12.235 9.227-28.004-.264-.456 18.537-22.878 18.805-23.057-.226-1.715 7.305 37.015 6.915 10.195 0-.192 5.429-18.846 8.878-19.068 7.456-.477-3.147-7.13 9.667-15.112 3.084-1.915 7.339-11.646 8.09-13.548.126.192 19.598 17.588 22.556 21.163 3.214 3.872 20.291 7.828 19.657 21.427-.033.753 6.29 14.33 5.887 21.556-.34 6.185 16.863 13.557 23.165 29.104 8.077 19.926-2.182-18.997 6.079-6.452 6.722 10.228 11.463 6.528 22.737 23.128l.881 1.257h4.721c-1.731-5.754-3.602-19.475-5.832-20.847-4.205-2.572-20.404-13.063-20.35-16.446.264-16.225 21.18 11.57 15.654.117-10.59-21.945-5.945-7.69-11.836-10.914 2.681-3.375.865-5.553 1.611-7.606 4.049-1.342 4.742.602-4.64-8.3-9.978-9.455 3.012-13.791-2.413-25.713-2.32-5.085 6.181-4.6 11.921.042 2.945 2.392 24.608 11.888 38.802 17.726 11.257 13.105 24.57 21.849 39.939 26.24-11.723-6.548-21.339-13.845-28.85-21.903.537.18.928.284 1.137.326 16.628 2.718 12.5 5.754 22.385 11.265 6.348.857 19.569 16.605 37.64 21.163 5.269 1.335 10.635 7.128 16.115 13.287v-8.675l-7.929-9.17c-11.094-12.503-26.845-11.148-32.601-18.094-3.957-4.78-27.08-17.04-33.419-19.11-.16-.146-.571-.234-.835-.414-.865-.581-1.284-.581-1.914-.928-1.447-.824-1.879.021-3.444-.013-.588 0-2.568-1.246-2.631-1.418-.172-.096-.94-.414-1.049-.498-.986-.824-3.575-2.655-4.796-2.781-.868-.084-2.404-1.121-3.038-1.321-1.686-.552-2.19-1.811-4.602-2.22-1.888-.318-4.318-.941-5.967-1.936.021-.201-20.06-5.796-21.151-6.08-.197-.042-.658-.234-1.25-.498-4.204-4.709-11.026-5.67-16.317-8.631-2.438-1.355-12.088 3.776-15.495 5.975-1.788 1.163-2.744 1.142-3.915 2.124-.717.602-5.84 2.856-6.667 2.137-.722-.636-.247-.414-.973-.569-2.992-.656-2.346 1.045-3.793 1.246-2.581.351-1.481.732-2.795 1.183-2.169.774-.826 1.313-3.105 1.271-1.749-2.622-6.704-3.354-9.025-6.812-.512-.774-4.85-4.633-6.239-4.662-1.749-.021-6.734-5.139-9.528-6.059-.026-.012-3.281-2.296-3.458-2.442-.025-.021-2.479-1.1-3.134-1.694-.881-.803-4.045-2.095-6.503-2.76-1.079-.623-2.161-1.154-3.185-1.397-3.684-.899-4.07-3.015-6.726-1.852-5.349 2.317-4.158 1.334-9.893 5.068-.542-.075-3.533.519-3.827.803-1.531 1.472-2.66 3.195-4.368 3.161-3.067-.054-2.089.615-5.567 2.421-2.942 1.556-3.525 2.685-6.743 4.019-1.427.602-4.8 3.763-6.227 3.617-.856.519-2.282-.657-3.965 1.924-.306.464-2.198.414-3.96 2.613-.072.096-1.876.974-2.371 1.48-3.038 3.099-1.401 1.196-2.773 1.965-1.93 1.1-3.974 2.304-6.03 3.111-4.078 1.564-3.906 2.739-5.87 3.893-2.601 1.535-2.769 2.434-6.1 3.584-1.796.636-7.695 5.256-9.642 5.608-1.876.318-8.774 6.77-11.484 7.941-.214.105-.864.594-1.049.761-3.986.477-5.337 3.195-8.752 4.821-1.561.74-1.905 1.702-3.831 2.233-2.736.732-6.696 4.759-7.833 5.139-2.303.795-6.038 4.274-8.157 4.073-.033-.012-6.369 3.542-6.545 3.797-.176.243-.399.326-.39.56-2.333 1.819-.822-1.376-5.291 3.901-2.861 3.374-10.28 5.637-15 10.86-1.049 1.162-1.498-1.639-6.692 6.08-4.615 6.841-8.79 5.967-14.61 10.596-4.355 3.458-7.276 1.965-13.842 7.192-2.97 2.361-6.141 4.499-9.381 6.438h27.424z"/></svg>