<svg xmlns="http://www.w3.org/2000/svg" width="125" height="480" fill="none"><path fill="#fff" fill-rule="evenodd" d="m0 9.016.012.094c1.374 10.468 4.759 26.353 5.607 27.373 55.277 67.285-30.396-7.888 30.044 66.01 25.782 31.531 14.913 20.255-6.273 45.026-7.505 8.756 12.261 18.229 28.062 9.221.457-.264 22.925 18.527 23.105 18.795 1.718-.226-37.092 7.301-10.216 6.911.193 0 18.885 5.427 19.107 8.874.478 7.452 7.144-3.145 15.143 9.662 1.919 3.082 11.67 7.334 13.576 8.085-.192.126-17.624 19.588-21.206 22.544-3.88 3.212-7.844 20.28-21.471 19.646-.754-.033-14.36 6.286-21.601 5.884-6.197-.34-13.585 16.854-29.164 23.152-19.966 8.073 19.036-2.18 6.465 6.077-10.249 6.718-6.541 11.456-23.176 22.724-1.823 1.246-6.126 4.353-8.012 6.303v1.631c.913-.13 2.598-.683 5.322-1.837 4.421-1.87 20.813-3.883 22.321-6.328 2.577-4.201 13.09-20.392 16.48-20.338 16.258.264-11.594 21.169-.117 15.646 21.99-10.584 7.706-5.942 10.936-11.83 3.382 2.68 5.565.864 7.622 1.61 1.345 4.047-.603 4.739 8.318-4.638 9.474-9.972 13.819 3.011 25.766-2.411 5.096-2.319 4.609 6.177-.042 11.914-2.397 2.944-11.913 24.595-17.762 38.781-13.132 11.251-21.894 24.557-26.294 39.918 6.562-11.716 13.874-21.328 21.948-28.834-.18.537-.285.926-.327 1.136-2.724 16.619-5.766 12.493-11.288 22.372-.859 6.345-16.639 19.559-21.207 37.62-2.426 9.553-19.552 19.42-26.897 29.72-13.895 19.516-6.771 6.198-12.994 27.534a86.694 86.694 0 0 1-1.781 5.447V480c3.951-11.549 13.84-18.766 16.694-27.01 5.594-16.237 17.687-24.499 29.545-34.999 12.529-11.088 11.171-26.83 18.131-32.584 4.789-3.954 17.075-27.064 19.149-33.401.147-.159.235-.57.415-.834.582-.864.582-1.284.93-1.913.826-1.446-.021-1.878.013-3.442 0-.588 1.249-2.567 1.42-2.63.096-.172.415-.939.499-1.048.825-.986 2.661-3.573 2.786-4.793.084-.868 1.123-2.403 1.324-3.036.553-1.686 1.814-2.189 2.225-4.601.319-1.887.943-4.315 1.94-5.963.201.021 5.808-20.049 6.093-21.139.042-.197.234-.659.498-1.25 4.719-4.202 5.682-11.02 8.649-16.308 1.358-2.437-3.784-12.082-5.988-15.487-1.165-1.786-1.144-2.742-2.128-3.912-.604-.718-2.862-5.838-2.142-6.664.637-.721.415-.247.57-.973.658-2.99-1.047-2.344-1.248-3.791-.352-2.579-.733-1.48-1.186-2.793-.775-2.168-1.316-.826-1.274-3.103 2.627-1.748 3.36-6.701 6.826-9.02.775-.512 4.643-4.848 4.672-6.236.021-1.748 5.15-6.73 6.071-9.523.013-.025 2.301-3.279 2.448-3.456.021-.025 1.102-2.478 1.697-3.132.804-.881 2.099-4.043 2.765-6.5.624-1.078 1.157-2.16 1.4-3.183.901-3.682 3.021-4.068 1.856-6.722-2.321-5.347-1.337-4.156-5.079-9.888.076-.541-.519-3.531-.804-3.825-1.475-1.53-3.201-2.659-3.168-4.365.055-3.066-.616-2.089-2.426-5.565-1.559-2.94-2.69-3.523-4.027-6.739-.603-1.426-3.771-4.797-3.624-6.223-.52-.856.657-2.281-1.928-3.963-.465-.306-.415-2.197-2.619-3.959-.096-.071-.976-1.874-1.483-2.369-3.105-3.036-1.198-1.401-1.969-2.772-1.102-1.929-2.309-3.971-3.117-6.026-1.567-4.076-2.745-3.904-3.901-5.867-1.538-2.6-2.439-2.767-3.591-6.097-.637-1.795-5.267-7.691-5.619-9.637-.319-1.874-6.784-8.768-7.957-11.477-.105-.214-.595-.864-.763-1.049-.478-3.983-3.201-5.334-4.831-8.747-.742-1.56-1.705-1.904-2.238-3.829-.733-2.734-4.768-6.693-5.15-7.829-.796-2.302-4.282-6.034-4.081-8.152.013-.034-3.549-6.366-3.805-6.542-.243-.176-.327-.398-.561-.39-1.823-2.332 1.379-.822-3.91-5.288-3.382-2.86-5.648-10.274-10.882-14.992-1.165-1.048 1.643-1.497-6.093-6.689-6.855-4.613-5.98-8.785-10.618-14.602-3.465-4.353-1.969-7.271-7.207-13.834-3.583-4.495-6.654-9.452-9.294-14.413C2.875 3.497.649 1.933.013 0v9.016H0z"/><path fill="#275490" d="M5.619 36.483C4.771 35.463 1.386 19.579.012 9.11L.004 315.397c1.886-1.95 6.189-5.057 8.012-6.303 16.635-11.268 12.927-16.006 23.176-22.724 12.571-8.257-26.432 1.996-6.465-6.077 15.579-6.298 22.967-23.492 29.164-23.152 7.241.402 20.846-5.917 21.601-5.884 13.627.634 17.591-16.434 21.471-19.646 3.582-2.956 21.014-22.418 21.206-22.544-1.906-.751-11.657-5.003-13.576-8.085-7.999-12.807-14.666-2.21-15.143-9.662-.222-3.447-18.915-8.874-19.107-8.874-26.876.39 11.934-7.137 10.216-6.911-.18-.268-22.648-19.059-23.105-18.795-15.801 9.008-35.567-.465-28.062-9.221 21.186-24.771 32.055-13.495 6.273-45.026-60.44-73.898 25.234 1.275-30.044-66.01zm-.293 278.708c-2.724 1.154-4.408 1.707-5.322 1.837L.008 472.51l1.781-5.447c6.222-21.336-.901-8.018 12.994-27.534 7.345-10.3 24.471-20.167 26.897-29.72 4.567-18.061 20.348-31.275 21.207-37.62 5.523-9.879 8.565-5.753 11.288-22.372.042-.21.147-.599.327-1.136-8.075 7.506-15.386 17.118-21.948 28.834 4.4-15.361 13.161-28.667 26.294-39.918 5.85-14.186 15.365-35.837 17.762-38.781 4.651-5.737 5.137-14.233.042-11.914-11.946 5.422-16.291-7.561-25.766 2.411-8.921 9.377-6.973 8.685-8.318 4.638-2.057-.746-4.24 1.07-7.622-1.61-3.231 5.888 11.054 1.246-10.936 11.83-11.477 5.523 16.375-15.382.117-15.646-3.39-.054-13.903 16.137-16.48 20.338-1.508 2.445-17.901 4.458-22.321 6.328z"/></svg>